Coordinates
version=1
nRows=5
nColumns=40
inDegrees=yes

Units are S.I. units (second, meters, Newtons, ...)
If the header above contains a line with 'inDegrees', this indicates whether rotational values are in degrees (yes) or radians (no).

endheader
time	pelvis_tilt	pelvis_list	pelvis_rotation	pelvis_tx	pelvis_ty	pelvis_tz	hip_flexion_r	hip_adduction_r	hip_rotation_r	knee_angle_r	knee_angle_r_beta	ankle_angle_r	subtalar_angle_r	mtp_angle_r	hip_flexion_l	hip_adduction_l	hip_rotation_l	knee_angle_l	knee_angle_l_beta	ankle_angle_l	subtalar_angle_l	mtp_angle_l	lumbar_extension	lumbar_bending	lumbar_rotation	arm_flex_r	arm_add_r	arm_rot_r	elbow_flex_r	pro_sup_r	wrist_flex_r	wrist_dev_r	arm_flex_l	arm_add_l	arm_rot_l	elbow_flex_l	pro_sup_l	wrist_flex_l	wrist_dev_l
      3.16500000	    -38.26259504	      2.76013127	      3.48372006	     -0.46217637	      0.60060246	     -0.92799458	    105.03943690	    -17.92715099	     12.58096813	    103.54711097	      1.80723802	     38.01506666	      0.00000000	      0.00000000	    106.61081301	    -11.99726645	      3.28439988	    100.88720556	      1.76081391	     32.97591956	      0.00000000	      0.00000000	    -33.29649655	     -2.20701072	     -0.47725632	    -33.82652396	    -55.29606873	     25.11242016	    106.50323866	     88.14985137	      0.00000000	      0.00000000	      3.43655527	    -67.24572218	     63.87862130	    110.52048662	     88.13569563	      0.00000000	      0.00000000
      3.17000000	    -38.26214863	      2.76130919	      3.41551764	     -0.46212755	      0.60063851	     -0.92790121	    105.01290385	    -17.84080464	     12.56632550	    103.53163012	      1.80696783	     38.00067148	      0.00000000	      0.00000000	    106.60841791	    -12.07328414	      3.29307990	    100.89255378	      1.76090725	     32.98024780	      0.00000000	      0.00000000	    -33.32838447	     -2.26354665	      0.57748768	    -36.11310407	    -54.34447328	     22.70395077	    106.60064140	     88.14443186	      0.00000000	      0.00000000	      7.91575486	    -67.13451675	     68.39181170	    110.36400650	     88.12330960	      0.00000000	      0.00000000
      3.17500000	    -38.33977708	      2.75297929	      3.41355656	     -0.46215699	      0.60052759	     -0.92792087	    105.09439046	    -17.82540786	     12.57127461	    103.51142592	      1.80661520	     38.00196167	      0.00000000	      0.00000000	    106.69071839	    -12.06825658	      3.31066937	    100.89363342	      1.76092610	     32.99035416	      0.00000000	      0.00000000	    -33.25752307	     -2.26387661	      0.58624740	    -36.11009324	    -54.36185229	     22.74050105	    106.60723465	     88.14827607	      0.00000000	      0.00000000	      7.88831146	    -67.14434150	     68.40011556	    110.37925612	     88.12585822	      0.00000000	      0.00000000
      3.18000000	    -38.33102688	      2.78880048	      3.39227629	     -0.46191901	      0.60061280	     -0.92788657	    105.07299503	    -17.78940912	     12.61418199	    103.52832694	      1.80691017	     38.03354343	      0.00000000	      0.00000000	    106.64279864	    -12.10964329	      3.26232582	    100.89951583	      1.76102876	     33.01860629	      0.00000000	      0.00000000	    -33.30955818	     -2.28984677	     -0.29247282	    -34.13989926	    -55.15701865	     24.80587113	    106.51583216	     88.14305143	      0.00000000	      0.00000000	      3.97606045	    -67.25608839	     64.43269090	    110.47994701	     88.13127737	      0.00000000	      0.00000000
      3.18500000	    -38.34862626	      2.70088394	      3.63835594	     -0.46204187	      0.60061760	     -0.92847907	    105.07810480	    -18.07801717	     12.59177260	    103.54837188	      1.80726002	     38.06191897	      0.00000000	      0.00000000	    106.67596607	    -11.79632596	      3.28201904	    100.84122861	      1.76001146	     32.98007754	      0.00000000	      0.00000000	    -33.35684140	     -2.03654964	     -0.73150291	    -33.75433756	    -55.41881803	     25.12521675	    106.62285025	     88.14090800	      0.00000000	      0.00000000	      2.38042476	    -67.24221279	     62.74699675	    110.58290613	     88.15946851	      0.00000000	      0.00000000
